<svg xmlns="http://www.w3.org/2000/svg" viewBox="0 0 1010 194" width="1010" height="194" role="img" aria-label="strategy team flow">
<defs>
<marker id="a" viewBox="0 0 8 8" refX="7" refY="4" markerWidth="7" markerHeight="7" orient="auto"><path d="M0.5 0.8 L7 4 L0.5 7.2" fill="none" stroke="#B9B9C0" stroke-width="1.3" stroke-linecap="round" stroke-linejoin="round"/></marker>
<marker id="r" viewBox="0 0 8 8" refX="7" refY="4" markerWidth="7" markerHeight="7" orient="auto"><path d="M0.5 0.8 L7 4 L0.5 7.2" fill="none" stroke="#C74634" stroke-width="1.3" stroke-linecap="round" stroke-linejoin="round" opacity=".55"/></marker>
<style>
.nd{fill:#FFFFFF;stroke:#E4E4E7;stroke-width:1.5}
.gh{fill:#FFFFFF;stroke:#DCDCE1;stroke-width:1.5;stroke-dasharray:4 4}
.gt{fill:#FFFFFF;stroke:#C74634;stroke-width:1.5}
.bg{fill:#FBEAE7}
.nm{font:600 12.5px Inter,-apple-system,"Segoe UI",sans-serif;fill:#1A1A1A;letter-spacing:-.1px}
.mt{font:600 12.5px Inter,-apple-system,"Segoe UI",sans-serif;fill:#75767E;letter-spacing:-.1px}
.no{font:700 11px Inter,-apple-system,"Segoe UI",sans-serif;fill:#C74634}
.ln{stroke:#D5D5DA;stroke-width:1.5;fill:none}
.rt{stroke:#C74634;stroke-width:1.5;fill:none;opacity:.5;stroke-dasharray:5 5}
</style>
</defs>
<path class="ln" d="M215 71 H310"/>
<path class="ln" d="M215 129 H310"/>
<path class="ln" d="M310 71 V129"/>
<path class="ln" d="M310 71 H397" marker-end="url(#a)"/>
<path class="ln" d="M310 129 H397" marker-end="url(#a)"/>
<path class="ln" d="M605 71 H700"/>
<path class="ln" d="M605 129 H700"/>
<path class="ln" d="M700 42 V158"/>
<path class="ln" d="M700 42 H787" marker-end="url(#a)"/>
<path class="ln" d="M700 100 H787" marker-end="url(#a)"/>
<path class="ln" d="M700 158 H787" marker-end="url(#a)"/>
<g><rect class="nd" x="15" y="50" width="200" height="42" rx="9"/><rect class="bg" x="28" y="59" width="24" height="24" rx="6.5"/><text class="no" x="40" y="75" text-anchor="middle">6</text><text class="nm" x="62" y="76">Discovery Agent</text></g>
<g><rect class="nd" x="15" y="108" width="200" height="42" rx="9"/><rect class="bg" x="28" y="117" width="24" height="24" rx="6.5"/><text class="no" x="40" y="133" text-anchor="middle">3</text><text class="nm" x="62" y="134">Keyword Research</text></g>
<g><rect class="nd" x="405" y="50" width="200" height="42" rx="9"/><rect class="bg" x="418" y="59" width="24" height="24" rx="6.5"/><text class="no" x="430" y="75" text-anchor="middle">2</text><text class="nm" x="452" y="76">Positioning Angles</text></g>
<g><rect class="nd" x="405" y="108" width="200" height="42" rx="9"/><rect class="bg" x="418" y="117" width="24" height="24" rx="6.5"/><text class="no" x="430" y="133" text-anchor="middle">1</text><text class="nm" x="452" y="134">Brand Voice</text></g>
<g><rect class="nd" x="795" y="21" width="200" height="42" rx="9"/><rect class="bg" x="808" y="30" width="24" height="24" rx="6.5"/><text class="no" x="820" y="46" text-anchor="middle">4</text><text class="nm" x="842" y="46">Direct Response</text></g>
<g><rect class="nd" x="795" y="79" width="200" height="42" rx="9"/><rect class="bg" x="808" y="88" width="24" height="24" rx="6.5"/><text class="no" x="820" y="104" text-anchor="middle">5</text><text class="nm" x="842" y="104">Lead Magnet</text></g>
<g><rect class="nd" x="795" y="137" width="200" height="42" rx="9"/><rect class="bg" x="808" y="146" width="24" height="24" rx="6.5"/><text class="no" x="820" y="162" text-anchor="middle">7</text><text class="nm" x="842" y="162">Community Seeding</text></g>
</svg>
